<svg t="1716370713175" class="icon" viewBox="0 0 1024 1024" version="1.1" xmlns="http://www.w3.org/2000/svg" p-id="2267" width="200" height="200"><path d="M741.14027795 206.4796294L282.85972205 206.4796294C240.8506711 206.4796294 206.4796294 240.8506711 206.4796294 282.85972205L206.4796294 741.14027795C206.4796294 783.1493289 240.8506711 817.5203706 282.85972205 817.5203706L741.14027795 817.5203706C783.1493289 817.5203706 817.5203706 783.1493289 817.5203706 741.14027795L817.5203706 282.85972205C817.5203706 240.8506711 783.1493289 206.4796294 741.14027795 206.4796294L741.14027795 206.4796294ZM359.23981469 282.85972205C401.24886566 282.85972205 435.61990735 317.23076373 435.61990735 359.23981469 435.61990735 401.24886566 401.24886566 435.61990735 359.23981469 435.61990735 317.23076373 435.61990735 282.85972205 401.24886566 282.85972205 359.23981469 282.85972205 317.23076373 317.23076373 282.85972205 359.23981469 282.85972205L359.23981469 282.85972205ZM244.66967572 779.33032428L244.66967572 706.76923627 313.4117591 615.11312508C340.14479153 580.74208339 382.15384249 580.74208339 408.88687492 611.29412045L542.55203706 775.51131964 244.66967572 775.51131964 244.66967572 779.33032428ZM779.33032428 779.33032428L588.38009265 779.33032428 512 680.03620384 638.02715288 519.63800925C664.76018531 485.26696757 706.76923627 485.26696757 733.50226869 519.63800925L783.1493289 584.56108802 783.1493289 779.33032428 779.33032428 779.33032428Z" fill="#dbdbdb" p-id="2268"></path></svg>